<svg width="418" height="64" viewBox="0 0 418 64" fill="none" xmlns="http://www.w3.org/2000/svg">
<g clip-path="url(#clip0_1846_318)">
<path fill-rule="evenodd" clip-rule="evenodd" d="M0.304443 0.30481H65.6251V64.1016H0.304443V0.30481Z" fill="#334954" stroke="#334954" stroke-width="0.5669" stroke-miterlimit="22.9256"/>
<path fill-rule="evenodd" clip-rule="evenodd" d="M3.25047 3.14926H62.2727V60.5461H3.25047V3.14926Z" fill="#334954" stroke="white" stroke-width="0.216" stroke-miterlimit="22.9256"/>
<path d="M59.0219 38.8064V45.7143C59.0219 49.2699 58.1076 51.8096 56.1775 53.5365C54.2473 55.2635 51.3013 56.0762 47.3394 56.0762H42.9711C38.5013 56.0762 35.4536 55.1619 33.7267 53.2318C31.9997 51.3016 31.187 47.7461 31.187 42.4635V40.0254H36.1648V44.0889C36.1648 46.8318 36.6727 48.7619 37.587 49.8794C38.5013 50.9969 40.3298 51.5048 42.7679 51.5048H47.5425C49.879 51.5048 51.5044 51.0984 52.3171 50.1842C53.1298 49.2699 53.6378 47.6445 53.6378 45.1048V41.0413C53.6378 39.8223 53.5362 38.8064 53.4346 38.2984C53.333 37.6889 53.1298 37.181 52.9267 36.673C52.3171 35.3524 49.4727 34.3365 44.5965 33.6254C43.5806 33.5238 42.8695 33.3207 42.26 33.3207C42.0568 33.3207 41.8536 33.2191 41.5489 33.2191C38.3997 32.7111 36.3679 32.2032 35.5552 31.6953C34.3362 30.8826 33.3203 29.8667 32.8124 28.5461C32.2029 27.2254 31.8981 25.6 31.8981 23.6699V17.6762C31.8981 14.1207 32.8124 11.581 34.7425 9.854C36.8759 7.92384 39.8219 7.11115 43.7838 7.11115H47.2378C51.5044 7.11115 54.5521 8.02543 56.279 9.95559C58.1076 11.7842 59.0219 14.9334 59.0219 19.4032V20.8254H53.9425V19.2C53.9425 16.3556 53.4346 14.4254 52.5203 13.4096C51.606 12.3937 49.879 11.8857 47.3394 11.8857H43.3775C41.0409 11.8857 39.4156 12.2921 38.5013 13.2064C37.587 14.1207 37.1806 15.7461 37.1806 18.1842V23.3651C37.1806 26.0064 39.4156 27.6318 43.8854 28.2413C44.9013 28.3429 45.714 28.5461 46.3235 28.5461C51.4029 29.3588 54.7552 30.4762 56.4822 31.8984C58.2092 33.4223 59.0219 35.6572 59.0219 38.8064Z" fill="#ECECEC"/>
<path fill-rule="evenodd" clip-rule="evenodd" d="M31.9999 7.51749C34.7428 7.61907 36.7745 12.8 36.5713 19.0984C36.3682 25.3969 34.0317 30.4762 31.2888 30.3746C28.5459 30.273 26.5142 25.0921 26.7174 18.7937C26.9205 12.4953 29.2571 7.51749 31.9999 7.51749Z" fill="#334954" stroke="#334954" stroke-width="0.5669" stroke-miterlimit="22.9256"/>
<path fill-rule="evenodd" clip-rule="evenodd" d="M27.936 28.0381C25.5994 28.1397 23.5677 24.6857 23.3645 20.419C23.1614 16.1524 24.9899 12.5968 27.3264 12.4952C29.6629 12.3936 31.6947 15.8476 31.8979 20.1143C32.101 24.3809 30.2725 27.9365 27.936 28.0381Z" fill="#334954" stroke="#334954" stroke-width="0.5669" stroke-miterlimit="22.9256"/>
<path fill-rule="evenodd" clip-rule="evenodd" d="M33.7268 32.6096C36.4696 32.8127 38.2982 38.0953 37.7903 44.3937C37.2823 50.6921 34.7427 55.6699 31.9998 55.4667C29.2569 55.2635 27.4284 49.981 27.9363 43.6826C28.4442 37.3842 30.9839 32.4064 33.7268 32.6096Z" fill="#334954" stroke="#334954" stroke-width="0.5669" stroke-miterlimit="22.9256"/>
<path d="M36.1648 44.9016C36.1648 48.9651 35.1489 51.9112 33.1171 53.5366C31.0854 55.162 27.4283 55.9747 22.2473 55.9747H8.43143V6.90799H21.2314C26.8187 6.90799 30.5775 7.6191 32.406 9.14291C34.2346 10.6667 35.1489 13.308 35.1489 17.2699V21.5366C35.1489 23.8731 34.7425 25.8032 33.8283 27.1239C32.914 28.4445 31.3902 29.4604 29.3584 30.2731C31.6949 30.8826 33.4219 32.0001 34.5394 33.6254C35.6568 35.2508 36.1648 37.4858 36.1648 40.3302V44.9016ZM13.3076 27.9366H20.8251C24.6854 27.9366 27.3267 27.5302 28.5457 26.7175C29.7648 25.9048 30.4759 24.2794 30.4759 22.0445V16.5588C30.4759 14.6286 29.8663 13.308 28.6473 12.5969C27.4283 11.8858 24.787 11.4794 20.8251 11.4794H13.3076V27.9366ZM31.187 44.3937V39.9239C31.187 37.181 30.4759 35.2508 29.1552 34.235C27.8346 33.2191 25.0917 32.7112 21.0283 32.7112H13.206V51.5048H21.0283C25.0917 51.5048 27.8346 50.9969 29.1552 49.981C30.5775 48.9651 31.187 47.1366 31.187 44.3937Z" fill="#B2B2B2"/>
<path d="M112.995 48.5828H116.708L114.94 44.8706L112.995 48.5828ZM110.167 51.7647L114.233 43.4565H115.117L119.359 51.7647H118.298L117.238 49.4667H112.642L111.404 51.7647H110.167ZM121.657 47.1687H125.369C125.9 47.1687 126.253 46.9919 126.607 46.8151C126.96 46.6383 126.96 46.2848 126.96 45.7545C126.96 45.401 126.783 45.0474 126.607 44.6939C126.253 44.5171 125.9 44.3403 125.546 44.3403H121.834V47.1687H121.657ZM120.596 51.7647V43.4565H125.369C126.253 43.4565 126.783 43.6332 127.314 44.1636C127.844 44.5171 128.021 45.2242 128.021 45.9313C128.021 46.4616 127.844 46.9919 127.491 47.5222C127.137 47.8757 126.607 48.2293 126.076 48.4061L128.198 52.1182H126.96L124.839 48.2293H121.657V51.7647H120.596ZM133.678 51.0576L133.147 49.997H134.385L134.738 50.8808C135.445 50.7041 135.976 50.1738 136.329 49.6434C136.683 49.1131 136.859 48.4061 136.859 47.699C136.859 46.6383 136.506 45.9313 135.976 45.2242C135.268 44.5171 134.561 44.3403 133.678 44.3403C132.794 44.3403 131.91 44.6939 131.379 45.2242C130.849 45.9313 130.496 46.6383 130.496 47.699C130.496 48.7596 130.849 49.4667 131.379 50.1738C131.91 50.7041 132.617 51.0576 133.678 51.0576ZM134.208 51.9415C134.208 51.9415 134.031 51.9415 133.854 51.9415C133.678 51.9415 133.678 51.9415 133.501 51.9415C132.263 51.9415 131.203 51.5879 130.496 50.7041C129.612 49.8202 129.258 48.7596 129.258 47.5222C129.258 46.2848 129.612 45.2242 130.496 44.3403C131.379 43.4565 132.263 43.1029 133.678 43.1029C134.915 43.1029 135.976 43.4565 136.859 44.3403C137.743 45.2242 138.097 46.2848 138.097 47.5222C138.097 48.4061 137.92 49.2899 137.39 49.997C136.859 50.7041 136.152 51.2344 135.445 51.5879L135.976 52.8253H134.738L134.208 51.9415ZM140.572 43.4565V48.9364C140.572 49.8202 140.748 50.3505 141.102 50.7041C141.455 51.0576 141.986 51.2344 143.046 51.2344C143.93 51.2344 144.637 51.0576 144.991 50.7041C145.344 50.3505 145.521 49.8202 145.521 48.9364V43.4565H146.582V49.1131C146.582 50.1738 146.228 50.8808 145.698 51.4112C145.168 51.9415 144.284 52.1182 143.046 52.1182C141.809 52.1182 140.925 51.9415 140.395 51.4112C139.864 50.8808 139.511 50.1738 139.511 49.1131V43.4565H140.572ZM148.88 51.7647V43.2797H149.94V51.7647H148.88ZM153.829 51.7647V44.3403H150.294V43.4565H158.425V44.3403H154.89V51.7647H153.829ZM158.956 51.7647V43.4565H165.496V44.3403H160.016V46.8151H163.375V47.699H160.016V50.7041H165.85V51.7647H158.956ZM168.855 51.7647V44.3403H165.319V43.4565H173.451V44.3403H169.916V51.7647H168.855ZM177.517 51.0576C178.4 51.0576 179.284 50.7041 179.815 50.1738C180.345 49.4667 180.699 48.7596 180.699 47.699C180.699 46.6383 180.345 45.9313 179.815 45.2242C179.284 44.5171 178.4 44.3403 177.517 44.3403C176.633 44.3403 175.749 44.6939 175.219 45.2242C174.688 45.9313 174.335 46.6383 174.335 47.699C174.335 48.7596 174.688 49.4667 175.219 50.1738C175.749 50.7041 176.633 51.0576 177.517 51.0576ZM177.517 52.1182C176.279 52.1182 175.219 51.7647 174.335 50.8808C173.451 49.997 173.097 48.9364 173.097 47.699C173.097 46.4616 173.451 45.401 174.335 44.5171C175.219 43.6332 176.102 43.2797 177.517 43.2797C178.754 43.2797 179.815 43.6332 180.699 44.5171C181.582 45.401 181.936 46.4616 181.936 47.699C181.936 48.9364 181.582 49.997 180.699 50.8808C179.815 51.5879 178.754 52.1182 177.517 52.1182ZM189.007 51.7647V43.4565H195.547V44.3403H190.067V46.8151H193.426V47.699H190.067V50.7041H195.901V51.7647H189.007ZM203.502 43.4565V48.9364C203.502 49.8202 203.679 50.3505 204.032 50.7041C204.386 51.0576 204.916 51.2344 205.977 51.2344C206.861 51.2344 207.568 51.0576 207.921 50.7041C208.275 50.3505 208.451 49.8202 208.451 48.9364V43.4565H209.512V49.1131C209.512 50.1738 209.159 50.8808 208.628 51.4112C208.098 51.9415 207.214 52.1182 205.977 52.1182C204.739 52.1182 203.855 51.9415 203.325 51.4112C202.795 50.8808 202.441 50.1738 202.441 49.1131V43.4565H203.502ZM212.694 47.1687H216.406C216.936 47.1687 217.29 46.9919 217.644 46.8151C217.997 46.6383 217.997 46.2848 217.997 45.7545C217.997 45.401 217.82 45.0474 217.644 44.6939C217.29 44.5171 216.936 44.3403 216.583 44.3403H212.871V47.1687H212.694ZM211.633 51.7647V43.4565H216.406C217.29 43.4565 217.82 43.6332 218.351 44.1636C218.881 44.5171 219.058 45.2242 219.058 45.9313C219.058 46.4616 218.881 46.9919 218.527 47.5222C218.174 47.8757 217.644 48.2293 217.113 48.4061L219.235 52.1182H217.997L215.876 48.2293H212.694V51.7647H211.633ZM221.886 46.8151H225.952C226.305 46.8151 226.659 46.6383 227.012 46.4616C227.189 46.2848 227.366 45.9313 227.366 45.5777C227.366 45.2242 227.189 44.8706 227.012 44.6939C226.836 44.5171 226.482 44.3403 225.952 44.3403H221.886V46.8151ZM221.886 50.8808H226.305C226.836 50.8808 227.189 50.7041 227.366 50.5273C227.719 50.1738 227.719 49.8202 227.719 49.2899C227.719 48.7596 227.543 48.4061 227.366 48.2293C227.012 47.8757 226.659 47.8757 226.305 47.8757H221.886V50.8808ZM221.002 51.7647V43.4565H225.952C226.836 43.4565 227.366 43.6332 227.896 43.9868C228.25 44.3403 228.603 44.8706 228.603 45.5777C228.603 45.9313 228.603 46.2848 228.427 46.4616C228.25 46.6383 228.073 46.9919 227.896 47.1687C228.427 47.3454 228.603 47.699 228.957 48.0525C229.134 48.4061 229.31 48.9364 229.31 49.2899C229.31 49.997 229.134 50.7041 228.603 51.0576C228.073 51.5879 227.366 51.7647 226.482 51.7647H221.002ZM232.492 48.5828H236.204L234.437 44.8706L232.492 48.5828ZM229.841 51.7647L233.906 43.4565H234.79L239.033 51.7647H237.972L236.912 49.4667H232.316L230.901 51.7647H229.841ZM240.27 51.7647V43.4565H240.801L246.28 49.6434V43.4565H247.341V51.7647H246.811L241.331 45.5777V51.7647H240.27ZM249.816 51.7647V43.2797H250.876V51.7647H249.816ZM252.644 50.5273L253.174 49.6434C253.705 50.1738 254.412 50.5273 254.942 50.7041C255.649 50.8808 256.18 51.0576 256.887 51.0576C257.594 51.0576 258.301 50.8808 258.831 50.5273C259.361 50.1738 259.538 49.8202 259.538 49.2899C259.538 48.9364 259.361 48.5828 259.008 48.2293C258.654 48.0525 258.124 47.8757 257.594 47.699C257.417 47.699 257.24 47.699 256.887 47.699C255.472 47.5222 254.589 47.5222 254.058 47.1687C253.705 46.9919 253.351 46.8151 253.174 46.4616C252.998 46.108 252.821 45.7545 252.821 45.401C252.821 44.6939 253.174 44.1636 253.705 43.81C254.235 43.4565 255.119 43.1029 256.003 43.1029C256.71 43.1029 257.417 43.2797 258.124 43.4565C258.831 43.6332 259.538 43.9868 260.069 44.5171L259.538 45.401C259.008 45.0474 258.478 44.6939 257.947 44.5171C257.417 44.3403 256.71 44.1636 256.18 44.1636C255.472 44.1636 254.942 44.3403 254.589 44.5171C254.235 44.6939 254.058 45.0474 254.058 45.401C254.058 45.5777 254.058 45.7545 254.235 45.7545C254.235 45.9313 254.412 45.9313 254.589 46.108C254.942 46.2848 255.649 46.4616 256.887 46.6383C257.417 46.6383 257.771 46.6383 258.124 46.8151C259.008 46.9919 259.715 47.1687 260.069 47.699C260.599 48.2293 260.776 48.7596 260.776 49.2899C260.776 49.997 260.422 50.7041 259.715 51.2344C259.008 51.7647 258.124 51.9415 257.063 51.9415C256.18 51.9415 255.472 51.7647 254.765 51.5879C253.882 51.4112 253.174 51.0576 252.644 50.5273ZM264.134 51.7647V44.3403H260.599V43.4565H268.73V44.3403H265.195V51.7647H264.134ZM269.791 48.5828H273.503L271.735 44.8706L269.791 48.5828ZM266.963 51.7647L271.028 43.4565H271.912L276.155 51.7647H275.094L274.033 49.4667H269.437L268.2 51.7647H266.963Z" fill="#F8F9FA"/>
<path d="M290.473 48.4061L291.357 49.1132C291.003 49.8203 290.296 50.5273 289.589 50.8809C288.882 51.2344 287.998 51.588 287.114 51.588C285.7 51.588 284.639 51.0577 283.755 50.1738C282.872 49.29 282.518 48.2293 282.518 46.8152C282.518 45.401 282.872 44.3404 283.755 43.4565C284.639 42.5727 285.7 42.0424 287.114 42.0424C287.998 42.0424 288.705 42.2191 289.412 42.5727C290.119 42.9262 290.65 43.4565 291.003 44.1636L290.119 44.8707C289.766 44.3404 289.412 43.9868 288.882 43.6333C288.352 43.2798 287.821 43.103 287.114 43.103C286.054 43.103 285.346 43.4565 284.639 44.1636C283.932 44.8707 283.579 45.7545 283.579 46.8152C283.579 47.8758 283.932 48.7596 284.639 49.4667C285.346 50.1738 286.054 50.5273 287.114 50.5273C287.821 50.5273 288.528 50.3506 289.059 49.997C289.766 49.6435 290.119 49.1132 290.473 48.4061ZM294.892 47.8758H298.781L296.837 43.9868L294.892 47.8758ZM292.064 51.2344L296.483 42.2191H297.367L301.786 51.2344H300.549L299.311 48.7596H294.362L293.124 51.2344H292.064ZM303.731 42.2191V48.0526C303.731 48.9364 303.907 49.6435 304.261 49.997C304.614 50.3506 305.322 50.5273 306.382 50.5273C307.443 50.5273 308.15 50.3506 308.503 49.997C308.857 49.6435 309.034 49.1132 309.034 48.0526V42.2191H310.094V48.4061C310.094 49.4667 309.741 50.3506 309.21 50.7041C308.68 51.2344 307.62 51.4112 306.382 51.4112C305.145 51.4112 304.084 51.2344 303.554 50.7041C303.023 50.1738 302.67 49.4667 302.67 48.4061V42.2191H303.731ZM319.64 47.8758H323.529L321.584 43.9868L319.64 47.8758ZM316.812 51.2344L321.231 42.2191H322.115L326.534 51.2344H325.297L324.059 48.7596H319.11L317.872 51.2344H316.812ZM329.186 48.2293H334.312V44.1636L329.186 48.2293ZM334.312 51.2344V49.1132H327.418V48.2293L334.312 42.7494H335.373V48.2293H336.787V49.29H335.373V51.4112H334.312V51.2344ZM339.261 48.7596C339.969 49.4667 340.676 49.8203 341.206 50.1738C341.913 50.5273 342.62 50.5273 343.327 50.5273C344.211 50.5273 345.095 50.3506 345.625 49.997C346.156 49.6435 346.509 49.1132 346.509 48.7596C346.509 48.2293 346.332 47.8758 345.802 47.699C345.272 47.5222 344.565 47.3455 343.681 47.3455H343.327V46.2849H343.504C343.504 46.2849 343.681 46.2849 343.858 46.2849C344.565 46.2849 345.095 46.1081 345.448 45.9313C345.802 45.7545 345.979 45.401 345.979 45.0475C345.979 44.6939 345.802 44.3404 345.448 43.9868C345.095 43.8101 344.565 43.6333 343.858 43.6333C343.327 43.6333 342.62 43.8101 342.09 43.9868C341.56 44.1636 340.852 44.5171 340.322 44.8707L339.615 43.9868C340.145 43.4565 340.852 43.103 341.559 42.9262C342.267 42.7494 342.974 42.5727 343.858 42.5727C344.918 42.5727 345.625 42.7494 346.156 43.2798C346.686 43.6333 347.039 44.3404 347.039 45.0475C347.039 45.401 347.039 45.5778 346.863 45.9313C346.686 46.1081 346.509 46.4616 346.332 46.6384C346.863 46.8152 347.216 47.1687 347.393 47.5222C347.57 47.8758 347.746 48.2293 347.746 48.7596C347.746 49.6435 347.393 50.3506 346.509 50.8809C345.625 51.4112 344.741 51.7647 343.327 51.7647C342.267 51.7647 341.383 51.588 340.676 51.2344C339.969 50.8809 339.085 50.3506 338.378 49.6435L339.261 48.7596ZM351.812 51.2344L357.115 43.8101H350.575V42.7494H359.237L353.226 51.2344H351.812ZM362.242 48.5829C362.242 49.1132 362.595 49.6435 363.126 49.997C363.656 50.3506 364.363 50.5273 365.424 50.5273C366.307 50.5273 367.191 50.3506 367.722 49.997C368.252 49.6435 368.605 49.29 368.605 48.5829C368.605 48.0526 368.429 47.5222 367.898 47.3455C367.368 47.1687 366.661 46.9919 365.6 46.9919C364.54 46.9919 363.656 47.1687 363.126 47.3455C362.418 47.699 362.242 48.0526 362.242 48.5829ZM368.075 46.4616C368.605 46.6384 368.959 46.9919 369.312 47.3455C369.489 47.699 369.666 48.0526 369.666 48.5829C369.666 49.4667 369.312 50.1738 368.605 50.7041C367.898 51.2344 366.838 51.4112 365.424 51.4112C364.186 51.4112 363.126 51.2344 362.242 50.7041C361.535 50.1738 361.004 49.4667 361.004 48.5829C361.004 48.0526 361.181 47.699 361.358 47.3455C361.535 46.9919 362.065 46.6384 362.595 46.4616C362.242 46.2849 362.065 46.1081 361.888 45.7545C361.711 45.5778 361.711 45.2242 361.711 44.8707C361.711 44.1636 362.065 43.6333 362.772 43.2798C363.479 42.9262 364.363 42.5727 365.424 42.5727C366.484 42.5727 367.368 42.7494 368.075 43.2798C368.782 43.6333 369.136 44.1636 369.136 44.8707C369.136 45.2242 369.136 45.401 368.959 45.7545C368.605 45.9313 368.429 46.2849 368.075 46.4616ZM367.898 44.8707C367.898 44.5171 367.722 44.1636 367.191 43.9868C366.661 43.8101 366.131 43.6333 365.424 43.6333C364.716 43.6333 364.009 43.8101 363.656 43.9868C363.302 44.1636 362.949 44.5171 362.949 44.8707C362.949 45.2242 363.126 45.5778 363.656 45.7545C364.009 45.9313 364.716 46.1081 365.424 46.1081C366.307 46.1081 366.838 45.9313 367.368 45.7545C367.722 45.401 367.898 45.2242 367.898 44.8707ZM373.378 48.5829C373.378 49.1132 373.732 49.6435 374.262 49.997C374.792 50.3506 375.499 50.5273 376.56 50.5273C377.444 50.5273 378.328 50.3506 378.858 49.997C379.388 49.6435 379.742 49.29 379.742 48.5829C379.742 48.0526 379.565 47.5222 379.035 47.3455C378.505 47.1687 377.797 46.9919 376.737 46.9919C375.676 46.9919 374.792 47.1687 374.262 47.3455C373.555 47.699 373.378 48.0526 373.378 48.5829ZM379.212 46.4616C379.742 46.6384 380.095 46.9919 380.449 47.3455C380.626 47.699 380.803 48.0526 380.803 48.5829C380.803 49.4667 380.449 50.1738 379.742 50.7041C379.035 51.2344 377.974 51.4112 376.56 51.4112C375.323 51.4112 374.262 51.2344 373.378 50.7041C372.671 50.1738 372.141 49.4667 372.141 48.5829C372.141 48.0526 372.318 47.699 372.494 47.3455C372.671 46.9919 373.201 46.6384 373.732 46.4616C373.378 46.2849 373.201 46.1081 373.025 45.7545C372.848 45.5778 372.848 45.2242 372.848 44.8707C372.848 44.1636 373.201 43.6333 373.909 43.2798C374.616 42.9262 375.499 42.5727 376.56 42.5727C377.621 42.5727 378.505 42.7494 379.212 43.2798C379.919 43.6333 380.272 44.1636 380.272 44.8707C380.272 45.2242 380.272 45.401 380.096 45.7545C379.742 45.9313 379.565 46.2849 379.212 46.4616ZM379.035 44.8707C379.035 44.5171 378.858 44.1636 378.328 43.9868C377.797 43.8101 377.267 43.6333 376.56 43.6333C375.853 43.6333 375.146 43.8101 374.792 43.9868C374.262 44.1636 374.085 44.5171 374.085 44.8707C374.085 45.2242 374.262 45.5778 374.792 45.7545C375.146 45.9313 375.853 46.1081 376.56 46.1081C377.444 46.1081 377.974 45.9313 378.505 45.7545C378.681 45.401 379.035 45.2242 379.035 44.8707ZM382.394 46.2849H385.929V47.3455H382.394V46.2849ZM387.873 48.7596C388.58 49.4667 389.288 49.8203 389.818 50.1738C390.525 50.5273 391.232 50.5273 391.939 50.5273C392.823 50.5273 393.707 50.3506 394.237 49.997C394.767 49.6435 395.121 49.1132 395.121 48.7596C395.121 48.2293 394.944 47.8758 394.414 47.699C393.884 47.5222 393.177 47.3455 392.293 47.3455H391.939V46.2849H392.116C392.116 46.2849 392.293 46.2849 392.469 46.2849C393.177 46.2849 393.707 46.1081 394.06 45.9313C394.414 45.7545 394.591 45.401 394.591 45.0475C394.591 44.6939 394.414 44.3404 394.06 43.9868C393.707 43.8101 393.177 43.6333 392.469 43.6333C391.939 43.6333 391.232 43.8101 390.702 43.9868C390.171 44.1636 389.464 44.5171 388.934 44.8707L388.227 43.9868C388.757 43.4565 389.464 43.103 390.171 42.9262C390.879 42.7494 391.586 42.5727 392.469 42.5727C393.53 42.5727 394.237 42.7494 394.767 43.2798C395.298 43.6333 395.651 44.3404 395.651 45.0475C395.651 45.401 395.651 45.5778 395.475 45.9313C395.298 46.1081 395.121 46.4616 394.944 46.6384C395.475 46.8152 395.828 47.1687 396.005 47.5222C396.182 47.8758 396.358 48.2293 396.358 48.7596C396.358 49.6435 396.005 50.3506 395.121 50.8809C394.237 51.4112 393.353 51.7647 391.939 51.7647C390.879 51.7647 389.995 51.588 389.288 51.2344C388.58 50.8809 387.697 50.3506 386.99 49.6435L387.873 48.7596Z" fill="#F8F9FA"/>
<path d="M76.4035 22.0673H86.833C88.0704 22.0673 88.9543 21.7137 89.6613 21.1834C90.1917 20.6531 90.5452 19.946 90.5452 19.0622C90.5452 18.0015 90.1917 17.2945 89.6613 16.7642C89.131 16.2338 88.2472 15.8803 87.0098 15.8803H76.4035V22.0673ZM76.4035 32.8503H87.8936C89.131 32.8503 90.1917 32.4967 90.8987 31.7897C91.6058 31.0826 91.9594 30.0219 91.9594 28.7846C91.9594 27.5472 91.6058 26.4865 90.8987 25.7795C90.1917 24.8956 89.3078 24.5421 87.8936 24.5421H76.4035V32.8503ZM73.752 35.3251V13.4055H86.833C88.9543 13.4055 90.5452 13.9358 91.7826 14.8197C92.8432 15.7035 93.3735 17.1177 93.3735 18.8854C93.3735 19.7693 93.1968 20.4763 92.8432 21.1834C92.4897 21.8905 91.9594 22.4208 91.429 22.7744C92.6664 23.4814 93.5503 24.3653 94.0806 25.2491C94.6109 26.3098 94.9645 27.3704 94.9645 28.6078C94.9645 30.5523 94.2574 32.32 93.02 33.3806C91.6058 34.618 89.8381 35.1483 87.5401 35.1483H73.752V35.3251ZM102.566 25.4259H111.581C112.465 25.4259 113.172 25.2491 113.702 24.8956C114.232 24.5421 114.409 24.0117 114.409 23.1279C114.409 22.4208 114.232 21.8905 113.702 21.3602C113.172 21.0066 112.465 20.8299 111.581 20.8299H102.566V25.4259ZM102.566 27.9007V35.3251H99.914V18.3551H111.581C113.349 18.3551 114.763 18.7086 115.647 19.5925C116.707 20.4763 117.061 21.537 117.061 23.1279C117.061 24.3653 116.707 25.4259 115.823 26.3098C115.116 27.1936 114.056 27.7239 112.818 27.9007L117.591 35.3251H114.763L109.99 27.9007H102.566ZM122.01 18.3551H124.662V29.3149C124.662 30.9058 125.015 31.9664 125.899 32.6735C126.606 33.2038 128.197 33.5574 130.495 33.5574C132.793 33.5574 134.384 33.2038 135.091 32.6735C135.798 32.1432 136.329 31.0826 136.329 29.3149V18.3551H138.98V29.8452C138.98 31.9664 138.273 33.3806 137.036 34.4412C135.798 35.3251 133.5 35.8554 130.495 35.8554C127.49 35.8554 125.369 35.3251 124.132 34.4412C122.894 33.5574 122.187 31.9664 122.187 29.8452V18.3551H122.01ZM162.668 31.2593C161.784 32.8503 160.37 33.9109 158.779 34.7948C157.188 35.6786 155.42 36.0322 153.476 36.0322C150.47 36.0322 147.996 35.1483 146.051 33.5574C144.107 31.7897 143.223 29.6684 143.223 27.1936C143.223 24.5421 144.107 22.4208 146.051 20.6531C147.996 18.8854 150.47 18.1783 153.476 18.1783C155.42 18.1783 157.011 18.5319 158.602 19.2389C160.193 19.946 161.253 20.8299 162.314 22.244L160.193 23.6582C159.486 22.7744 158.602 21.8905 157.364 21.3602C156.304 20.8299 154.89 20.6531 153.476 20.6531C151.354 20.6531 149.41 21.1834 147.996 22.5976C146.581 23.835 145.874 25.4259 145.874 27.1936C145.874 29.1381 146.581 30.5523 147.996 31.7897C149.41 33.0271 151.178 33.7341 153.476 33.7341C155.066 33.7341 156.304 33.3806 157.541 32.8503C158.779 32.32 159.662 31.2593 160.546 30.0219L162.668 31.2593ZM167.087 35.3251V18.3551H182.996V20.8299H169.738V25.0724H178.4V27.5472H169.738V32.8503H183.703V35.3251H167.087ZM199.613 31.9664L201.027 29.6684C202.618 30.9058 204.209 31.7897 205.8 32.4967C207.391 33.2038 209.158 33.3806 210.749 33.3806C212.694 33.3806 214.461 33.027 215.699 32.1432C216.936 31.2593 217.643 30.1987 217.643 28.7846C217.643 27.7239 217.113 26.8401 216.229 26.133C215.345 25.4259 214.108 25.0724 212.517 24.8956C212.163 24.8956 211.633 24.8956 210.926 24.7188C207.391 24.5421 204.916 24.0117 203.502 23.4814C202.441 22.9511 201.734 22.4208 201.204 21.537C200.673 20.8299 200.497 19.946 200.497 18.8854C200.497 17.1177 201.204 15.7035 202.795 14.4661C204.385 13.4055 206.507 12.6984 208.982 12.6984C210.749 12.6984 212.694 13.052 214.461 13.5823C216.229 14.1126 217.997 14.9964 219.588 16.2338L217.997 18.5319C216.583 17.4712 215.168 16.5874 213.754 16.0571C212.34 15.5268 210.749 15.1732 209.158 15.1732C207.567 15.1732 206.153 15.5268 205.093 16.0571C204.032 16.7642 203.502 17.4712 203.502 18.5319C203.502 18.8854 203.502 19.2389 203.678 19.5925C203.855 19.946 204.032 20.2996 204.385 20.4763C205.269 21.1834 207.214 21.537 210.219 21.7137C211.633 21.7137 212.694 21.8905 213.401 21.8905C215.699 22.0673 217.466 22.7744 218.704 24.0117C219.941 25.2491 220.648 26.6633 220.648 28.431C220.648 30.5523 219.765 32.1432 217.997 33.5574C216.229 34.7948 213.931 35.5018 210.926 35.5018C208.805 35.5018 206.683 35.1483 204.739 34.618C202.971 34.2644 201.204 33.3806 199.613 31.9664ZM243.452 31.2593C242.568 32.8503 241.154 33.9109 239.563 34.7948C238.149 35.5018 236.381 35.8554 234.436 35.8554C231.431 35.8554 228.957 34.9715 227.012 33.3806C225.068 31.6129 224.184 29.4916 224.184 27.0168C224.184 24.3653 225.068 22.244 227.012 20.4763C228.957 18.7086 231.431 18.0015 234.436 18.0015C236.381 18.0015 237.972 18.3551 239.563 19.0622C241.154 19.7693 242.214 20.6531 243.275 22.0673L241.154 23.4814C240.447 22.5976 239.563 21.7137 238.325 21.1834C237.265 20.6531 235.851 20.4763 234.436 20.4763C232.315 20.4763 230.371 21.0066 228.957 22.4208C227.542 23.4814 226.835 25.0724 226.835 26.8401C226.835 28.7846 227.542 30.1987 228.957 31.4361C230.371 32.6735 232.138 33.3806 234.436 33.3806C236.027 33.3806 237.265 33.0271 238.502 32.4967C239.74 31.9664 240.623 30.9058 241.507 29.6684L243.452 31.2593ZM250.699 27.3704V35.3251H248.048V18.3551H250.699V24.8956H262.72V18.3551H265.371V35.3251H262.72V27.3704H250.699ZM271.028 35.3251V18.3551H273.68V35.3251H271.028ZM290.119 20.8299H282.341V24.8956H290.119C291.003 24.8956 291.533 24.7188 292.064 24.3653C292.417 24.0117 292.771 23.4814 292.771 22.9511C292.771 22.244 292.594 21.7137 292.064 21.537C291.533 21.0066 290.826 20.8299 290.119 20.8299ZM291.003 27.3704H282.341V33.027H291.003C291.887 33.027 292.594 32.8503 293.124 32.32C293.655 31.7897 293.831 31.0826 293.831 30.1987C293.831 29.3149 293.655 28.6078 293.124 28.0775C292.594 27.5472 291.887 27.3704 291.003 27.3704ZM279.69 35.3251V18.3551H290.119C291.887 18.3551 293.124 18.7086 294.008 19.4157C294.892 20.1228 295.422 21.1834 295.422 22.5976C295.422 23.3047 295.246 23.835 295.069 24.3653C294.715 24.8956 294.362 25.2491 293.831 25.6027C294.715 26.133 295.422 26.8401 295.953 27.5472C296.483 28.2542 296.66 29.1381 296.66 30.1987C296.66 31.7897 296.129 33.027 295.069 33.9109C294.008 34.7948 292.594 35.3251 290.65 35.3251H279.69ZM301.786 35.3251V18.3551H317.695V20.8299H304.438V25.0724H313.099V27.5472H304.438V32.8503H318.403V35.3251H301.786ZM322.291 35.3251V18.3551H324.943V32.8503H337.494V35.3251H322.291ZM339.085 33.2038L340.322 30.9058C341.559 31.6129 342.797 32.32 344.211 32.6735C345.625 33.2038 346.863 33.3806 348.1 33.3806C349.691 33.3806 350.752 33.0271 351.812 32.4967C352.696 31.9664 353.226 31.0826 353.226 30.1987C353.226 29.3149 352.873 28.431 351.989 28.0775C351.105 27.5472 349.868 27.3704 347.923 27.3704C344.741 27.3704 342.62 27.0168 341.559 26.3098C340.322 25.6027 339.792 24.5421 339.792 22.9511C339.792 21.537 340.499 20.2996 341.736 19.4157C342.974 18.5319 344.741 18.0015 346.863 18.0015C348.277 18.0015 349.691 18.1783 351.105 18.5319C352.519 18.8854 353.757 19.5925 354.994 20.2996L353.58 22.4208C352.519 21.7137 351.459 21.1834 350.221 20.8299C348.984 20.4763 347.746 20.2996 346.686 20.2996C345.448 20.2996 344.388 20.4763 343.504 21.0066C342.797 21.537 342.267 22.0673 342.267 22.7744C342.267 23.4814 342.62 24.0117 343.504 24.3653C344.211 24.7188 345.625 24.8956 347.57 24.8956C350.221 24.8956 352.342 25.4259 353.757 26.3098C355.171 27.1936 355.878 28.6078 355.878 30.3755C355.878 31.9664 355.171 33.3806 353.757 34.4412C352.342 35.5018 350.575 36.0322 348.277 36.0322C346.686 36.0322 344.918 35.8554 343.327 35.3251C341.913 34.618 340.499 34.0877 339.085 33.2038ZM378.681 31.2593C377.797 32.8503 376.383 33.9109 374.792 34.7948C373.201 35.6786 371.434 36.0322 369.489 36.0322C366.484 36.0322 364.009 35.1483 362.065 33.5574C360.12 31.7897 359.237 29.6684 359.237 27.1936C359.237 24.5421 360.12 22.4208 362.065 20.6531C364.009 18.8854 366.484 18.1783 369.489 18.1783C371.434 18.1783 373.025 18.5319 374.616 19.2389C376.207 19.946 377.267 20.8299 378.328 22.244L376.207 23.6582C375.499 22.7744 374.616 21.8905 373.378 21.3602C372.318 20.8299 370.903 20.6531 369.489 20.6531C367.368 20.6531 365.423 21.1834 364.009 22.5976C362.595 23.835 361.888 25.4259 361.888 27.1936C361.888 29.1381 362.595 30.5523 364.009 31.7897C365.423 33.0271 367.191 33.7341 369.489 33.7341C371.08 33.7341 372.318 33.3806 373.555 32.8503C374.792 32.32 375.676 31.2593 376.56 30.0219L378.681 31.2593ZM383.277 35.3251V18.3551H385.929V25.9562L394.944 18.3551H398.48L391.409 24.3653L399.54 35.3251H396.535L389.464 25.9562L385.929 28.9613V35.3251H383.277ZM406.081 35.3251V26.6633L398.303 18.3551H401.661L407.318 24.3653L412.798 18.3551H416.333L408.556 26.6633V35.3251H406.081Z" fill="#F8F9FA"/>
</g>
<defs>
<clipPath id="clip0_1846_318">
<rect width="417.524" height="64" fill="white"/>
</clipPath>
</defs>
</svg>
