<svg id="Layer_1" data-name="Layer 1" xmlns="http://www.w3.org/2000/svg" viewBox="0 0 835.58 556.08">
  <defs>
    <style>.cls-1{fill:#3e414c;}</style>
  </defs>
  <path class="cls-1" d="M140.63,63.6a2.91,2.91,0,1,0,2.91,2.91A2.9,2.9,0,0,0,140.63,63.6Z" />
  <path class="cls-1" d="M128.34,75.9a2.91,2.91,0,1,0,2.9,2.91A2.91,2.91,0,0,0,128.34,75.9Z" />
  <circle class="cls-1" cx="165.23" cy="66.51" r="2.91" />
  <path class="cls-1" d="M152.93,75.9a2.91,2.91,0,1,0,2.91,2.91A2.91,2.91,0,0,0,152.93,75.9Z" />
  <path class="cls-1" d="M140.63,88.2a2.91,2.91,0,1,0,2.91,2.9A2.9,2.9,0,0,0,140.63,88.2Z" />
  <path class="cls-1" d="M140.63,112.79a2.91,2.91,0,1,0,2.91,2.91A2.9,2.9,0,0,0,140.63,112.79Z" />
  <path class="cls-1" d="M128.34,100.49a2.91,2.91,0,1,0,2.9,2.91A2.91,2.91,0,0,0,128.34,100.49Z" />
  <circle class="cls-1" cx="165.23" cy="91.1" r="2.91" />
  <circle class="cls-1" cx="165.23" cy="115.7" r="2.91" />
  <path class="cls-1" d="M152.93,100.49a2.91,2.91,0,1,0,2.91,2.91A2.91,2.91,0,0,0,152.93,100.49Z" />
  <path class="cls-1" d="M189.82,63.6a2.91,2.91,0,1,0,2.91,2.91A2.91,2.91,0,0,0,189.82,63.6Z" />
  <path class="cls-1" d="M177.52,75.9a2.91,2.91,0,1,0,2.91,2.91A2.9,2.9,0,0,0,177.52,75.9Z" />
  <path class="cls-1" d="M214.41,63.6a2.91,2.91,0,1,0,2.91,2.91A2.9,2.9,0,0,0,214.41,63.6Z" />
  <path class="cls-1" d="M202.12,75.9a2.91,2.91,0,1,0,2.9,2.91A2.91,2.91,0,0,0,202.12,75.9Z" />
  <path class="cls-1" d="M189.82,88.2a2.91,2.91,0,1,0,2.91,2.9A2.9,2.9,0,0,0,189.82,88.2Z" />
  <path class="cls-1" d="M189.82,112.79a2.91,2.91,0,1,0,2.91,2.91A2.91,2.91,0,0,0,189.82,112.79Z" />
  <path class="cls-1" d="M177.52,100.49a2.91,2.91,0,1,0,2.91,2.91A2.9,2.9,0,0,0,177.52,100.49Z" />
  <path class="cls-1" d="M214.41,88.2a2.91,2.91,0,1,0,2.91,2.9A2.9,2.9,0,0,0,214.41,88.2Z" />
  <path class="cls-1" d="M214.41,112.79a2.91,2.91,0,1,0,2.91,2.91A2.9,2.9,0,0,0,214.41,112.79Z" />
  <path class="cls-1" d="M202.12,100.49a2.91,2.91,0,1,0,2.9,2.91A2.91,2.91,0,0,0,202.12,100.49Z" />
  <circle class="cls-1" cx="239.01" cy="66.51" r="2.91" />
  <path class="cls-1" d="M226.71,75.9a2.91,2.91,0,1,0,2.91,2.91A2.91,2.91,0,0,0,226.71,75.9Z" />
  <path class="cls-1" d="M263.6,63.6a2.91,2.91,0,1,0,2.91,2.91A2.91,2.91,0,0,0,263.6,63.6Z" />
  <path class="cls-1" d="M251.3,75.9a2.91,2.91,0,1,0,2.91,2.91A2.9,2.9,0,0,0,251.3,75.9Z" />
  <circle class="cls-1" cx="239.01" cy="91.1" r="2.91" />
  <circle class="cls-1" cx="239.01" cy="115.7" r="2.91" />
  <path class="cls-1" d="M226.71,100.49a2.91,2.91,0,1,0,2.91,2.91A2.91,2.91,0,0,0,226.71,100.49Z" />
  <path class="cls-1" d="M263.6,88.2a2.91,2.91,0,1,0,2.91,2.9A2.9,2.9,0,0,0,263.6,88.2Z" />
  <path class="cls-1" d="M263.6,112.79a2.91,2.91,0,1,0,2.91,2.91A2.91,2.91,0,0,0,263.6,112.79Z" />
  <path class="cls-1" d="M251.3,100.49a2.91,2.91,0,1,0,2.91,2.91A2.9,2.9,0,0,0,251.3,100.49Z" />
  <circle class="cls-1" cx="288.19" cy="66.51" r="2.91" />
  <path class="cls-1" d="M275.9,75.9a2.91,2.91,0,1,0,2.9,2.91A2.91,2.91,0,0,0,275.9,75.9Z" />
  <path class="cls-1" d="M312.79,63.6a2.91,2.91,0,1,0,2.9,2.91A2.91,2.91,0,0,0,312.79,63.6Z" />
  <path class="cls-1" d="M300.49,75.9a2.91,2.91,0,1,0,2.91,2.91A2.91,2.91,0,0,0,300.49,75.9Z" />
  <circle class="cls-1" cx="288.19" cy="91.1" r="2.91" />
  <circle class="cls-1" cx="288.19" cy="115.7" r="2.91" />
  <path class="cls-1" d="M275.9,100.49a2.91,2.91,0,1,0,2.9,2.91A2.91,2.91,0,0,0,275.9,100.49Z" />
  <path class="cls-1" d="M312.79,88.2a2.91,2.91,0,1,0,2.9,2.9A2.9,2.9,0,0,0,312.79,88.2Z" />
  <path class="cls-1" d="M312.79,112.79a2.91,2.91,0,1,0,2.9,2.91A2.91,2.91,0,0,0,312.79,112.79Z" />
  <path class="cls-1" d="M300.49,100.49a2.91,2.91,0,1,0,2.91,2.91A2.91,2.91,0,0,0,300.49,100.49Z" />
  <path class="cls-1" d="M337.38,63.6a2.91,2.91,0,1,0,2.91,2.91A2.91,2.91,0,0,0,337.38,63.6Z" />
  <path class="cls-1" d="M325.08,75.9A2.91,2.91,0,1,0,328,78.81,2.9,2.9,0,0,0,325.08,75.9Z" />
  <path class="cls-1" d="M337.38,88.2a2.91,2.91,0,1,0,2.91,2.9A2.9,2.9,0,0,0,337.38,88.2Z" />
  <path class="cls-1" d="M337.38,112.79a2.91,2.91,0,1,0,2.91,2.91A2.91,2.91,0,0,0,337.38,112.79Z" />
  <path class="cls-1" d="M325.08,100.49A2.91,2.91,0,1,0,328,103.4,2.9,2.9,0,0,0,325.08,100.49Z" />
  <circle class="cls-1" cx="361.97" cy="66.51" r="2.91" />
  <path class="cls-1" d="M349.68,75.9a2.91,2.91,0,1,0,2.9,2.91A2.91,2.91,0,0,0,349.68,75.9Z" />
  <path class="cls-1" d="M386.57,63.6a2.91,2.91,0,1,0,2.9,2.91A2.91,2.91,0,0,0,386.57,63.6Z" />
  <path class="cls-1" d="M374.27,75.9a2.91,2.91,0,1,0,2.91,2.91A2.91,2.91,0,0,0,374.27,75.9Z" />
  <circle class="cls-1" cx="361.97" cy="91.1" r="2.91" />
  <circle class="cls-1" cx="361.97" cy="115.7" r="2.91" />
  <path class="cls-1" d="M349.68,100.49a2.91,2.91,0,1,0,2.9,2.91A2.91,2.91,0,0,0,349.68,100.49Z" />
  <path class="cls-1" d="M386.57,88.2a2.91,2.91,0,1,0,2.9,2.9A2.9,2.9,0,0,0,386.57,88.2Z" />
  <path class="cls-1" d="M386.57,112.79a2.91,2.91,0,1,0,2.9,2.91A2.91,2.91,0,0,0,386.57,112.79Z" />
  <path class="cls-1" d="M374.27,100.49a2.91,2.91,0,1,0,2.91,2.91A2.91,2.91,0,0,0,374.27,100.49Z" />
  <circle class="cls-1" cx="411.16" cy="66.51" r="2.91" />
  <path class="cls-1" d="M398.86,75.9a2.91,2.91,0,1,0,2.91,2.91A2.9,2.9,0,0,0,398.86,75.9Z" />
  <circle class="cls-1" cx="411.16" cy="91.1" r="2.91" />
  <circle class="cls-1" cx="411.16" cy="115.7" r="2.91" />
  <path class="cls-1" d="M398.86,100.49a2.91,2.91,0,1,0,2.91,2.91A2.9,2.9,0,0,0,398.86,100.49Z" />
  <path class="cls-1" d="M435.75,63.6a2.91,2.91,0,1,0,2.91,2.91A2.9,2.9,0,0,0,435.75,63.6Z" />
  <path class="cls-1" d="M423.46,75.9a2.91,2.91,0,1,0,2.9,2.91A2.91,2.91,0,0,0,423.46,75.9Z" />
  <path class="cls-1" d="M460.35,63.6a2.91,2.91,0,1,0,2.9,2.91A2.91,2.91,0,0,0,460.35,63.6Z" />
  <path class="cls-1" d="M448.05,75.9A2.91,2.91,0,1,0,451,78.81,2.91,2.91,0,0,0,448.05,75.9Z" />
  <path class="cls-1" d="M435.75,88.2a2.91,2.91,0,1,0,2.91,2.9A2.9,2.9,0,0,0,435.75,88.2Z" />
  <path class="cls-1" d="M435.75,112.79a2.91,2.91,0,1,0,2.91,2.91A2.9,2.9,0,0,0,435.75,112.79Z" />
  <path class="cls-1" d="M423.46,100.49a2.91,2.91,0,1,0,2.9,2.91A2.91,2.91,0,0,0,423.46,100.49Z" />
  <path class="cls-1" d="M460.35,88.2a2.91,2.91,0,1,0,2.9,2.9A2.9,2.9,0,0,0,460.35,88.2Z" />
  <path class="cls-1" d="M460.35,112.79a2.91,2.91,0,1,0,2.9,2.91A2.91,2.91,0,0,0,460.35,112.79Z" />
  <path class="cls-1" d="M448.05,100.49A2.91,2.91,0,1,0,451,103.4,2.91,2.91,0,0,0,448.05,100.49Z" />
  <circle class="cls-1" cx="484.94" cy="66.51" r="2.91" />
  <path class="cls-1" d="M472.64,75.9a2.91,2.91,0,1,0,2.91,2.91A2.9,2.9,0,0,0,472.64,75.9Z" />
  <circle class="cls-1" cx="484.94" cy="91.1" r="2.91" />
  <circle class="cls-1" cx="484.94" cy="115.7" r="2.91" />
  <path class="cls-1" d="M472.64,100.49a2.91,2.91,0,1,0,2.91,2.91A2.9,2.9,0,0,0,472.64,100.49Z" />
  <path class="cls-1" d="M509.53,63.6a2.91,2.91,0,1,0,2.91,2.91A2.9,2.9,0,0,0,509.53,63.6Z" />
  <path class="cls-1" d="M497.24,75.9a2.91,2.91,0,1,0,2.9,2.91A2.91,2.91,0,0,0,497.24,75.9Z" />
  <path class="cls-1" d="M521.83,75.9a2.91,2.91,0,1,0,2.91,2.91A2.91,2.91,0,0,0,521.83,75.9Z" />
  <path class="cls-1" d="M509.53,88.2a2.91,2.91,0,1,0,2.91,2.9A2.9,2.9,0,0,0,509.53,88.2Z" />
  <path class="cls-1" d="M509.53,112.79a2.91,2.91,0,1,0,2.91,2.91A2.9,2.9,0,0,0,509.53,112.79Z" />
  <path class="cls-1" d="M497.24,100.49a2.91,2.91,0,1,0,2.9,2.91A2.91,2.91,0,0,0,497.24,100.49Z" />
  <path class="cls-1" d="M521.83,100.49a2.91,2.91,0,1,0,2.91,2.91A2.91,2.91,0,0,0,521.83,100.49Z" />
  <polygon class="cls-1" points="737.72 368.67 740.72 368.67 740.72 361.84 747.55 361.84 747.55 358.84 740.72 358.84 740.72 352.01 737.72 352.01 737.72 358.84 730.88 358.84 730.88 361.84 737.72 361.84 737.72 368.67" />
  <polygon class="cls-1" points="747.55 345.17 754.38 345.17 754.38 352.01 757.38 352.01 757.38 345.17 764.22 345.17 764.22 342.17 757.38 342.17 757.38 335.34 754.38 335.34 754.38 342.17 747.55 342.17 747.55 345.17" />
  <polygon class="cls-1" points="774.05 352.01 771.05 352.01 771.05 358.84 764.22 358.84 764.22 361.84 771.05 361.84 771.05 368.67 774.05 368.67 774.05 361.84 780.88 361.84 780.88 358.84 774.05 358.84 774.05 352.01" />
  <polygon class="cls-1" points="747.55 378.51 754.38 378.51 754.38 385.34 757.38 385.34 757.38 378.51 764.22 378.51 764.22 375.51 757.38 375.51 757.38 368.67 754.38 368.67 754.38 375.51 747.55 375.51 747.55 378.51" />
  <polygon class="cls-1" points="757.38 402.01 754.38 402.01 754.38 408.84 747.55 408.84 747.55 411.84 754.38 411.84 754.38 418.67 757.38 418.67 757.38 411.84 764.22 411.84 764.22 408.84 757.38 408.84 757.38 402.01" />
  <polygon class="cls-1" points="737.72 402.01 740.72 402.01 740.72 395.17 747.55 395.17 747.55 392.17 740.72 392.17 740.72 385.34 737.72 385.34 737.72 392.17 730.88 392.17 730.88 395.17 737.72 395.17 737.72 402.01" />
  <polygon class="cls-1" points="774.05 385.34 771.05 385.34 771.05 392.17 764.22 392.17 764.22 395.17 771.05 395.17 771.05 402.01 774.05 402.01 774.05 395.17 780.88 395.17 780.88 392.17 774.05 392.17 774.05 385.34" />
  <polygon class="cls-1" points="754.38 302.01 754.38 308.84 747.55 308.84 747.55 311.84 754.38 311.84 754.38 318.67 757.38 318.67 757.38 311.84 764.22 311.84 764.22 308.84 757.38 308.84 757.38 302.01 754.38 302.01" />
  <polygon class="cls-1" points="737.72 302.01 740.72 302.01 740.72 295.17 747.55 295.17 747.55 292.17 740.72 292.17 740.72 285.34 737.72 285.34 737.72 292.17 730.88 292.17 730.88 295.17 737.72 295.17 737.72 302.01" />
  <polygon class="cls-1" points="774.05 285.34 771.05 285.34 771.05 292.17 764.22 292.17 764.22 295.17 771.05 295.17 771.05 302.01 774.05 302.01 774.05 295.17 780.88 295.17 780.88 292.17 774.05 292.17 774.05 285.34" />
  <polygon class="cls-1" points="737.72 335.34 740.72 335.34 740.72 328.51 747.55 328.51 747.55 325.51 740.72 325.51 740.72 318.67 737.72 318.67 737.72 325.51 730.88 325.51 730.88 328.51 737.72 328.51 737.72 335.34" />
  <polygon class="cls-1" points="774.05 318.67 771.05 318.67 771.05 325.51 764.22 325.51 764.22 328.51 771.05 328.51 771.05 335.34 774.05 335.34 774.05 328.51 780.88 328.51 780.88 325.51 774.05 325.51 774.05 318.67" />
  <polygon class="cls-1" points="747.55 275.51 747.55 278.51 754.38 278.51 754.38 285.34 757.38 285.34 757.38 278.51 764.22 278.51 764.22 275.51 757.38 275.51 757.38 268.67 754.38 268.67 754.38 275.51 747.55 275.51" />
  <polygon class="cls-1" points="737.72 268.67 740.72 268.67 740.72 261.84 747.55 261.84 747.55 258.84 740.72 258.84 740.72 252.01 737.72 252.01 737.72 258.84 730.88 258.84 730.88 261.84 737.72 261.84 737.72 268.67" />
  <polygon class="cls-1" points="771.05 268.67 774.05 268.67 774.05 261.84 780.88 261.84 780.88 258.84 774.05 258.84 774.05 252.01 771.05 252.01 771.05 258.84 764.22 258.84 764.22 261.84 771.05 261.84 771.05 268.67" />
  <path class="cls-1" d="M793.9,239.91H722.63V124.6H536.06V53.32H113.87v71.27H42.61v76.27h76.26V129.59H531.06V244.91H717.63V426.48H228.71v76.27H722.16V431.48H793.9Zm-76.27-93.75v15.92L685.15,129.6h15.92Zm0,20.16v15.92L665,129.6h15.91Zm0,20.16V202.4l-72.79-72.8h15.91Zm0,20.16v15.91l-93-93h15.91Zm0-64.72L705.31,129.6h12.32ZM536.06,222.4V206.48l33.42,33.43H553.57Zm0-20.16V186.32l53.58,53.59H573.72Zm0-20.16V166.17l54.57,54.56,19.17,19.18H593.88Zm56.69,36.53-56.69-56.69V146l64.64,64.65L630,239.91H614Zm10.08-10.08-66.77-66.76V129.6h3.74L650.11,239.91H634.2Zm-38.74-58.89-20-20H560l60.9,60.9,49.41,49.41H654.35ZM623,188.38,564.2,129.6h15.92l50.82,50.82,59.49,59.49H674.51Zm10.08-10.08-48.7-48.7h15.92L710.59,239.91H694.67ZM113.87,139.49H47.61v-9.9h66.26Zm0,56.37H47.61V185.25h66.26ZM47.61,182.25V171h66.26v11.25Zm0-14.25V156.75h66.26V168Zm0-14.25V142.49h66.26v11.26Zm71.26-95.43H531.06v66.27H118.87ZM536.06,226.64l13.26,13.27H536.06Zm178.77,13.27L604.52,129.6h15.92l97.19,97.2v13.11Zm2.33,257.84H233.71V431.48H717.16Zm71.74-71.27H722.63V244.91H788.9Z" />
  <path class="cls-1" d="M267.91,470.14h8.57l1.57,4.51h4.45l-7.22-19.6H269.4l-7.2,19.6h4.17Zm4.29-12.46,3.13,9.07h-6.24Z" />
  <path class="cls-1" d="M292.22,468.07h3.3a6,6,0,0,1,2.18.33,3.74,3.74,0,0,1,1.36.89,3.69,3.69,0,0,1,.79,1.24,8.93,8.93,0,0,1,.4,1.43c.09.49.18,1,.27,1.43a6.42,6.42,0,0,0,.35,1.26h4.56a7.5,7.5,0,0,1-.7-1.72c-.15-.57-.28-1.12-.39-1.64s-.24-1-.38-1.49a3.58,3.58,0,0,0-.69-1.27,4.16,4.16,0,0,0-1.3-1,7.54,7.54,0,0,0-2.2-.68v-.14a6.56,6.56,0,0,0,4-1.85,6,6,0,0,0,1.38-4.23,5.51,5.51,0,0,0-.45-2.25,4.85,4.85,0,0,0-1.27-1.75,6,6,0,0,0-2-1.15,7.8,7.8,0,0,0-2.63-.42H288.1v19.6h4.12Zm0-9.61h5.48a3.48,3.48,0,0,1,2.52.79,2.93,2.93,0,0,1,.82,2.21,3,3,0,0,1-3.28,3.19h-5.54Z" />
  <path class="cls-1" d="M313.38,472.23a8.6,8.6,0,0,0,3.08,2,11.59,11.59,0,0,0,4.12.7c.32,0,.62,0,.91,0l.85-.08a5.58,5.58,0,0,0,.33,2.19,4,4,0,0,0,1,1.5,3.77,3.77,0,0,0,1.46.86,6,6,0,0,0,1.76.26,6.73,6.73,0,0,0,3.33-.87l-1.12-4.06a4.62,4.62,0,0,1-1.4.91,3.45,3.45,0,0,1-1.31.27,2.74,2.74,0,0,1-1.37-.35,2.63,2.63,0,0,1-1-1,8.25,8.25,0,0,0,4.7-3.37,10.87,10.87,0,0,0,1.65-6.15,13,13,0,0,0-.65-4.23,8.8,8.8,0,0,0-1.92-3.2,8.41,8.41,0,0,0-3.07-2,11.19,11.19,0,0,0-4.1-.71,11.37,11.37,0,0,0-4.12.71,8.45,8.45,0,0,0-3.08,2,8.64,8.64,0,0,0-1.91,3.2,12.69,12.69,0,0,0-.66,4.23,12.13,12.13,0,0,0,.66,4.13A8.56,8.56,0,0,0,313.38,472.23ZM316.31,460a6,6,0,0,1,8.51,0,7.87,7.87,0,0,1,1.42,5,7.39,7.39,0,0,1-1.42,4.84,6.15,6.15,0,0,1-8.51,0A7.39,7.39,0,0,1,314.9,465,7.87,7.87,0,0,1,316.31,460Z" />
  <path class="cls-1" d="M338.85,473a11.31,11.31,0,0,0,12.64,0,7.25,7.25,0,0,0,2.24-5.8V455.05h-4.12v12a4.46,4.46,0,0,1-1.12,3.4,5.76,5.76,0,0,1-6.63,0,4.46,4.46,0,0,1-1.12-3.4v-12h-4.12V467.2Q336.62,471.07,338.85,473Z" />
  <rect class="cls-1" x="360.87" y="455.05" width="4.12" height="19.6" />
  <polygon class="cls-1" points="377.64 474.65 381.76 474.65 381.76 458.46 388.14 458.46 388.14 455.05 371.29 455.05 371.29 458.46 377.64 458.46 377.64 474.65" />
  <polygon class="cls-1" points="409.06 471.23 398.56 471.23 398.56 466.58 407.97 466.58 407.97 463.17 398.56 463.17 398.56 458.46 408.78 458.46 408.78 455.05 394.44 455.05 394.44 474.65 409.06 474.65 409.06 471.23" />
  <polygon class="cls-1" points="421.01 474.65 425.13 474.65 425.13 458.46 431.51 458.46 431.51 455.05 414.66 455.05 414.66 458.46 421.01 458.46 421.01 474.65" />
  <path class="cls-1" d="M439.62,473a11.31,11.31,0,0,0,12.64,0c1.5-1.29,2.24-3.22,2.24-5.8V455.05h-4.11v12a4.5,4.5,0,0,1-1.12,3.4,4.73,4.73,0,0,1-3.34,1.05,4.67,4.67,0,0,1-3.3-1.05,4.46,4.46,0,0,1-1.12-3.4v-12h-4.12V467.2A7.28,7.28,0,0,0,439.62,473Z" />
  <path class="cls-1" d="M465.76,468.07h3.3a6.08,6.08,0,0,1,2.19.33,3.7,3.7,0,0,1,2.14,2.13,8,8,0,0,1,.4,1.43c.1.49.19,1,.27,1.43a6.42,6.42,0,0,0,.35,1.26H479a8,8,0,0,1-.7-1.72c-.15-.57-.28-1.12-.39-1.64s-.24-1-.38-1.49a3.72,3.72,0,0,0-.68-1.27,4.28,4.28,0,0,0-1.3-1,7.74,7.74,0,0,0-2.2-.68v-.14a6.56,6.56,0,0,0,4-1.85,6,6,0,0,0,1.38-4.23,5.68,5.68,0,0,0-.44-2.25,4.87,4.87,0,0,0-1.28-1.75,6,6,0,0,0-2-1.15,7.76,7.76,0,0,0-2.63-.42h-10.7v19.6h4.12Zm0-9.61h5.49a3.51,3.51,0,0,1,2.52.79,2.93,2.93,0,0,1,.81,2.21,3,3,0,0,1-3.28,3.19h-5.54Z" />
  <path class="cls-1" d="M489.5,470.14h8.57l1.57,4.51h4.45l-7.22-19.6H491l-7.2,19.6H488Zm4.29-12.46,3.13,9.07h-6.24Z" />
  <polygon class="cls-1" points="524.19 458.83 528.53 474.65 534.02 474.65 538.33 458.83 538.08 474.65 542.2 474.65 542.17 455.05 535.48 455.05 531.28 471.37 527.05 455.05 520.36 455.05 520.33 474.65 524.45 474.65 524.19 458.83" />
  <path class="cls-1" d="M551.49,472.23a8.6,8.6,0,0,0,3.08,2,11.59,11.59,0,0,0,4.12.7,11.4,11.4,0,0,0,4.1-.7,8.65,8.65,0,0,0,3.07-2,8.56,8.56,0,0,0,1.91-3.14,12.13,12.13,0,0,0,.66-4.13,12.69,12.69,0,0,0-.66-4.23,8.64,8.64,0,0,0-1.91-3.2,8.5,8.5,0,0,0-3.07-2,11.19,11.19,0,0,0-4.1-.71,11.37,11.37,0,0,0-4.12.71,8.45,8.45,0,0,0-3.08,2,8.8,8.8,0,0,0-1.92,3.2,13,13,0,0,0-.65,4.23,12.39,12.39,0,0,0,.65,4.13A8.72,8.72,0,0,0,551.49,472.23ZM554.42,460a6,6,0,0,1,8.51,0,7.87,7.87,0,0,1,1.42,5,7.39,7.39,0,0,1-1.42,4.84,6.15,6.15,0,0,1-8.51,0A7.39,7.39,0,0,1,553,465,7.87,7.87,0,0,1,554.42,460Z" />
  <path class="cls-1" d="M590.71,472.18q2.53-2.46,2.59-7.33t-2.55-7.34q-2.58-2.46-7.62-2.46h-8v19.6h8.07Q588.17,474.65,590.71,472.18Zm-11.44-13.72h3.86a5.91,5.91,0,0,1,4.52,1.63,8.25,8.25,0,0,1,0,9.53,5.79,5.79,0,0,1-4.46,1.61h-4Z" />
  <path class="cls-1" d="M601.82,473a11.31,11.31,0,0,0,12.64,0c1.5-1.29,2.24-3.22,2.24-5.8V455.05h-4.11v12a4.46,4.46,0,0,1-1.12,3.4,5.77,5.77,0,0,1-6.64,0,4.5,4.5,0,0,1-1.12-3.4v-12H599.6V467.2Q599.6,471.07,601.82,473Z" />
  <polygon class="cls-1" points="637.9 471.23 627.96 471.23 627.96 455.05 623.84 455.05 623.84 474.65 637.9 474.65 637.9 471.23" />
  <path class="cls-1" d="M648,470.14h8.57l1.57,4.51h4.45l-7.22-19.6h-5.88l-7.2,19.6h4.17Zm4.28-12.46,3.14,9.07h-6.24Z" />
  <path class="cls-1" d="M672.26,468.07h3.3a6,6,0,0,1,2.18.33,3.74,3.74,0,0,1,1.36.89,3.69,3.69,0,0,1,.79,1.24,8.93,8.93,0,0,1,.4,1.43c.09.49.18,1,.27,1.43a6.42,6.42,0,0,0,.35,1.26h4.56a7.5,7.5,0,0,1-.7-1.72c-.15-.57-.28-1.12-.39-1.64s-.24-1-.38-1.49a3.72,3.72,0,0,0-.68-1.27,4.33,4.33,0,0,0-1.31-1,7.56,7.56,0,0,0-2.19-.68v-.14a6.56,6.56,0,0,0,4-1.85,6,6,0,0,0,1.38-4.23,5.51,5.51,0,0,0-.45-2.25,4.85,4.85,0,0,0-1.27-1.75,6,6,0,0,0-2-1.15,7.8,7.8,0,0,0-2.63-.42h-10.7v19.6h4.12Zm0-9.61h5.48a3.48,3.48,0,0,1,2.52.79,2.9,2.9,0,0,1,.82,2.21,3,3,0,0,1-3.28,3.19h-5.54Z" />
  <polygon class="cls-1" points="175.13 186.12 175.13 250.14 226.16 250.14 226.16 243.74 182.81 243.74 182.81 186.12 175.13 186.12" />
  <path class="cls-1" d="M241.43,186.12v38.5A26.61,26.61,0,0,0,243.72,236a23,23,0,0,0,6.45,8.33,27.8,27.8,0,0,0,10.06,5.07,51.48,51.48,0,0,0,26.24,0,28.37,28.37,0,0,0,10.11-5.07,22.85,22.85,0,0,0,6.49-8.33,26.61,26.61,0,0,0,2.29-11.34v-38.5h-7.68v37.41a22.17,22.17,0,0,1-1.74,9.05,18.43,18.43,0,0,1-4.89,6.63,21,21,0,0,1-7.64,4.07,37.62,37.62,0,0,1-20.12,0,21,21,0,0,1-7.64-4.07,18.43,18.43,0,0,1-4.89-6.63,22.17,22.17,0,0,1-1.74-9.05V186.12Z" />
  <path class="cls-1" d="M350.27,186.12l-32.84,64h8.05l8.51-17h42l8.5,17H393l-32.84-64Zm-13.08,40.61,17.74-35.4,17.74,35.4Z" />
  <polygon class="cls-1" points="467.33 244.56 420.14 186.12 408.71 186.12 408.71 250.14 416.39 250.14 416.39 192.52 462.85 250.14 474.92 250.14 474.92 186.12 467.33 186.12 467.33 244.56" />
  <polygon class="cls-1" points="230.65 370.23 246.81 370.23 246.81 307.04 230.65 307.04 230.65 332.04 191.2 332.04 191.2 307.04 175.13 307.04 175.13 370.23 191.2 370.23 191.2 345.31 230.65 345.31 230.65 370.23" />
  <path class="cls-1" d="M291.4,307l-31.5,63.19h16.88L283,356.87h36.92l6.32,13.36h18L312.8,307Zm-2.16,36.56,12.18-26.09L313.7,343.6Z" />
  <polygon class="cls-1" points="379.79 370.23 379.79 350.1 404.79 307.04 385.29 307.04 371.57 337.28 357.94 307.04 338.35 307.04 363.63 350.1 363.63 370.23 379.79 370.23" />
  <path class="cls-1" d="M418,307v63.19h35.48q19.32,0,29.11-7.94t10.07-23.66q.18-15.61-9.93-23.6t-29.79-8Zm58.41,31.77q0,18.06-22.93,18.06H434.13V320.4h18.78q11.73,0,17.6,4.69T476.38,338.81Z" />
  <polygon class="cls-1" points="569 320.4 569 307.04 511.23 307.04 511.23 370.23 570 370.23 570 356.87 527.3 356.87 527.3 345.59 564.94 345.59 564.94 332.31 527.3 332.31 527.3 320.4 569 320.4" />
  <polygon class="cls-1" points="634.9 370.23 660.9 370.23 660.9 307.04 644.84 307.04 644.84 358.22 614.32 307.04 589.68 307.04 589.68 370.23 605.75 370.23 605.75 320.58 634.9 370.23" />
</svg>